<svg width="16" height="23" viewBox="0 0 16 23" fill="none" xmlns="http://www.w3.org/2000/svg">
<path d="M-8.2016e-05 15.3333C-8.2016e-05 14.3265 0.198222 13.3296 0.583508 12.3994C0.968795 11.4693 1.53352 10.6241 2.24543 9.91218C2.95735 9.20026 3.80252 8.63554 4.73268 8.25026C5.66284 7.86497 6.65978 7.66667 7.66659 7.66667C8.67339 7.66667 9.67033 7.86497 10.6005 8.25026C11.5307 8.63554 12.3758 9.20026 13.0877 9.91218C13.7997 10.6241 14.3644 11.4693 14.7497 12.3994C15.1349 13.3296 15.3333 14.3265 15.3333 15.3333L7.66658 15.3333H-8.2016e-05Z" fill="#000AFF"/>
<circle cx="7.66659" cy="3.83333" r="3.83333" fill="#C1C1C1"/>
</svg>
