<svg width="17" height="17" viewBox="0 0 17 17" fill="none" xmlns="http://www.w3.org/2000/svg">
<path d="M7.79175 4.95834H9.20842C9.58414 4.95834 9.94447 5.10759 10.2101 5.37327C10.4758 5.63895 10.6251 5.99928 10.6251 6.37501V7.08334H9.20842V6.37501H7.79175V10.625H9.20842V9.91667H10.6251V10.625C10.6251 11.0007 10.4758 11.3611 10.2101 11.6267C9.94447 11.8924 9.58414 12.0417 9.20842 12.0417H7.79175C7.41603 12.0417 7.05569 11.8924 6.79001 11.6267C6.52434 11.3611 6.37508 11.0007 6.37508 10.625V6.37501C6.37508 5.99928 6.52434 5.63895 6.79001 5.37327C7.05569 5.10759 7.41603 4.95834 7.79175 4.95834ZM8.50008 1.41667C9.43028 1.41667 10.3514 1.59989 11.2108 1.95586C12.0701 2.31183 12.851 2.83358 13.5088 3.49133C14.1665 4.14908 14.6883 4.92994 15.0442 5.78933C15.4002 6.64872 15.5834 7.56981 15.5834 8.50001C15.5834 10.3786 14.8371 12.1803 13.5088 13.5087C12.1804 14.8371 10.3787 15.5833 8.50008 15.5833C7.56989 15.5833 6.6488 15.4001 5.78941 15.0442C4.93002 14.6882 4.14916 14.1664 3.49141 13.5087C2.16303 12.1803 1.41675 10.3786 1.41675 8.50001C1.41675 6.62139 2.16303 4.81972 3.49141 3.49133C4.81979 2.16295 6.62146 1.41667 8.50008 1.41667ZM8.50008 2.83334C6.99719 2.83334 5.55585 3.43036 4.49314 4.49307C3.43044 5.55577 2.83341 6.99711 2.83341 8.50001C2.83341 10.0029 3.43044 11.4442 4.49314 12.5069C5.55585 13.5697 6.99719 14.1667 8.50008 14.1667C10.003 14.1667 11.4443 13.5697 12.507 12.5069C13.5697 11.4442 14.1667 10.0029 14.1667 8.50001C14.1667 6.99711 13.5697 5.55577 12.507 4.49307C11.4443 3.43036 10.003 2.83334 8.50008 2.83334Z" fill="#494949"/>
</svg>
