<svg width="852" height="205" viewBox="0 0 852 205" fill="none" xmlns="http://www.w3.org/2000/svg">
<g filter="url(#filter0_f_66_332)">
<path d="M18.6665 40C18.6665 42.9455 21.0543 45.3333 23.9999 45.3333C26.9454 45.3333 29.3332 42.9455 29.3332 40C29.3332 37.0545 26.9454 34.6667 23.9999 34.6667C21.0543 34.6667 18.6665 37.0545 18.6665 40ZM841.268 4.85919C840.914 4.4352 840.283 4.37839 839.859 4.7323L832.95 10.4996C832.526 10.8535 832.469 11.4841 832.823 11.9081C833.177 12.3321 833.807 12.3889 834.231 12.035L840.373 6.90851L845.5 13.0501C845.853 13.4741 846.484 13.5309 846.908 13.177C847.332 12.8231 847.389 12.1925 847.035 11.7685L841.268 4.85919ZM23.9999 40L23.23 39.3618C22.1543 40.6594 21.1076 42.0041 20.095 43.3925L20.903 43.9818L21.7109 44.571C22.6992 43.216 23.7205 41.904 24.7697 40.6382L23.9999 40ZM15.458 52.4995L14.5839 52.0137C12.9419 54.9676 11.4609 58.0573 10.1776 61.2585L11.1058 61.6306L12.034 62.0026C13.285 58.882 14.7295 55.8683 16.332 52.9854L15.458 52.4995ZM7.97292 71.2372L7.00345 70.992C6.17163 74.2806 5.55883 77.6521 5.19871 81.0844L6.19325 81.1888L7.18779 81.2931C7.53752 77.9598 8.13298 74.6824 8.94239 71.4824L7.97292 71.2372ZM5.89865 91.2831L4.89978 91.3305C5.05943 94.6937 5.4784 98.0914 6.18551 101.504L7.16471 101.301L8.14391 101.099C7.45853 97.7905 7.05233 94.4968 6.89753 91.2357L5.89865 91.2831ZM9.9884 111.028L9.05246 111.38C10.218 114.478 11.6415 117.571 13.3437 120.645L14.2185 120.161L15.0934 119.677C13.4379 116.686 12.0553 113.682 10.9243 110.676L9.9884 111.028ZM19.6866 128.636L18.8831 129.231C20.8387 131.87 23.0203 134.484 25.4412 137.063L26.1704 136.379L26.8995 135.694C24.5297 133.169 22.398 130.615 20.49 128.04L19.6866 128.636ZM33.4511 143.379L32.7939 144.133C35.2594 146.282 37.9098 148.4 40.7538 150.481L41.3443 149.674L41.9347 148.867C39.1348 146.818 36.529 144.736 34.1082 142.625L33.4511 143.379ZM49.7144 155.329L49.1845 156.177C51.9693 157.917 54.9058 159.625 57.9995 161.298L58.475 160.418L58.9506 159.538C55.8923 157.885 52.9922 156.198 50.2443 154.48L49.7144 155.329ZM67.5811 165.016L67.1544 165.921C70.0964 167.309 73.1605 168.668 76.3505 169.995L76.7346 169.072L77.1188 168.149C73.9565 166.833 70.9208 165.487 68.0079 164.112L67.5811 165.016ZM86.1129 172.744L85.7671 173.683C88.8918 174.834 92.1238 175.957 95.4657 177.05L95.7766 176.1L96.0874 175.149C92.7681 174.064 89.5594 172.949 86.4586 171.806L86.1129 172.744ZM105.329 179.051L105.049 180.011C108.223 180.938 111.487 181.838 114.844 182.712L115.096 181.745L115.348 180.777C112.01 179.908 108.764 179.012 105.609 178.091L105.329 179.051ZM124.933 184.166L124.707 185.14C127.911 185.885 131.193 186.607 134.554 187.305L134.757 186.326L134.961 185.347C131.615 184.652 128.348 183.933 125.159 183.192L124.933 184.166ZM144.745 188.285L144.563 189.268C147.798 189.867 151.1 190.444 154.472 190.999L154.634 190.013L154.797 189.026C151.438 188.473 148.148 187.898 144.927 187.302L144.745 188.285ZM164.671 191.57L164.527 192.56C167.802 193.038 171.139 193.496 174.538 193.934L174.666 192.942L174.793 191.95C171.405 191.514 168.08 191.057 164.816 190.581L164.671 191.57ZM184.677 194.151L184.564 195.145C187.898 195.521 191.288 195.879 194.736 196.218L194.834 195.222L194.932 194.227C191.493 193.89 188.113 193.533 184.789 193.157L184.677 194.151ZM204.765 196.13L204.68 197.126C208.047 197.411 211.466 197.679 214.937 197.928L215.009 196.93L215.081 195.933C211.617 195.684 208.207 195.418 204.849 195.133L204.765 196.13ZM224.964 197.585L224.904 198.583C228.225 198.783 231.592 198.966 235.006 199.132L235.055 198.133L235.103 197.135C231.697 196.968 228.337 196.786 225.024 196.587L224.964 197.585ZM245.318 198.578L245.28 199.578C248.547 199.702 251.855 199.812 255.205 199.906L255.233 198.907L255.261 197.907C251.918 197.813 248.616 197.703 245.356 197.579L245.318 198.578ZM265.398 199.145L265.379 200.145C268.743 200.209 272.148 200.257 275.594 200.291L275.604 199.291L275.613 198.291C272.174 198.257 268.775 198.209 265.416 198.146L265.398 199.145ZM285.552 199.346L285.551 200.346C288.907 200.351 292.301 200.342 295.732 200.319L295.725 199.319L295.719 198.319C292.293 198.342 288.905 198.351 285.554 198.346L285.552 199.346ZM305.957 199.211L305.971 200.21C309.25 200.163 312.562 200.103 315.908 200.03L315.887 199.031L315.865 198.031C312.524 198.103 309.216 198.163 305.942 198.211L305.957 199.211ZM326.018 198.775L326.047 199.774C329.461 199.676 332.908 199.565 336.389 199.441L336.354 198.442L336.318 197.442C332.841 197.566 329.398 197.677 325.99 197.775L326.018 198.775ZM346.236 198.058L346.278 199.057C349.601 198.918 352.954 198.767 356.338 198.604L356.29 197.605L356.241 196.607C352.862 196.769 349.513 196.92 346.194 197.059L346.236 198.058ZM366.526 197.082L366.58 198.08C368.303 197.987 370.033 197.891 371.771 197.792L371.714 196.793L371.657 195.795C369.921 195.894 368.192 195.99 366.472 196.083L366.526 197.082ZM371.714 196.793L371.771 197.792C373.481 197.694 375.186 197.595 376.885 197.494L376.826 196.496L376.767 195.498C375.069 195.598 373.366 195.697 371.657 195.795L371.714 196.793ZM386.941 195.877L387.004 196.875C390.353 196.662 393.678 196.445 396.979 196.222L396.911 195.224L396.844 194.226C393.546 194.449 390.224 194.667 386.878 194.879L386.941 195.877ZM406.738 194.539L406.81 195.536C410.226 195.29 413.615 195.039 416.979 194.781L416.903 193.784L416.826 192.787C413.466 193.044 410.079 193.296 406.666 193.541L406.738 194.539ZM426.929 192.993L427.01 193.989C430.328 193.72 433.62 193.444 436.887 193.163L436.801 192.166L436.715 191.17C433.452 191.451 430.163 191.726 426.848 191.996L426.929 192.993ZM446.824 191.277L446.915 192.273C450.299 191.965 453.655 191.65 456.983 191.328L456.886 190.333L456.79 189.337C453.466 189.658 450.114 189.973 446.733 190.282L446.824 191.277ZM466.78 189.351L466.882 190.346C470.225 190.005 473.54 189.657 476.826 189.304L476.719 188.31L476.612 187.315C473.33 187.669 470.019 188.016 466.679 188.356L466.78 189.351ZM486.79 187.196L486.903 188.189C490.231 187.811 493.529 187.426 496.797 187.035L496.678 186.042L496.559 185.049C493.296 185.44 490.002 185.824 486.677 186.202L486.79 187.196ZM506.587 184.824L506.712 185.816C510.096 185.389 513.448 184.955 516.766 184.513L516.634 183.522L516.502 182.531C513.188 182.971 509.842 183.405 506.462 183.832L506.587 184.824ZM526.483 182.178L526.622 183.169C529.968 182.701 533.279 182.225 536.557 181.742L536.411 180.753L536.265 179.764C532.993 180.246 529.686 180.721 526.345 181.188L526.483 182.178ZM546.394 179.244L546.548 180.232C549.842 179.721 553.101 179.203 556.324 178.677L556.163 177.69L556.002 176.703C552.784 177.228 549.53 177.746 546.241 178.256L546.394 179.244ZM566.152 176.018L566.321 177.004C569.653 176.432 572.946 175.852 576.201 175.264L576.023 174.28L575.845 173.296C572.597 173.883 569.309 174.462 565.983 175.033L566.152 176.018ZM585.787 172.47L585.974 173.452C589.338 172.813 592.659 172.165 595.938 171.508L595.742 170.528L595.545 169.547C592.273 170.203 588.958 170.849 585.601 171.488L585.787 172.47ZM605.442 168.535L605.648 169.514C608.996 168.808 612.298 168.094 615.556 167.37L615.339 166.394L615.122 165.418C611.872 166.14 608.577 166.853 605.235 167.557L605.442 168.535ZM625.073 164.174L625.301 165.148C628.604 164.375 631.859 163.592 635.065 162.8L634.825 161.829L634.586 160.859C631.387 161.648 628.14 162.429 624.845 163.2L625.073 164.174ZM644.56 159.36L644.812 160.328C648.082 159.475 651.299 158.613 654.466 157.741L654.2 156.777L653.935 155.813C650.777 156.682 647.569 157.542 644.307 158.392L644.56 159.36ZM663.891 154.033L664.17 154.993C667.417 154.048 670.606 153.092 673.739 152.126L673.445 151.171L673.15 150.215C670.027 151.178 666.848 152.13 663.611 153.073L663.891 154.033ZM683.038 148.125L683.348 149.076C686.577 148.021 689.742 146.954 692.845 145.877L692.517 144.933L692.189 143.988C689.098 145.061 685.944 146.123 682.727 147.175L683.038 148.125ZM701.947 141.558L702.293 142.496C705.503 141.311 708.642 140.115 711.712 138.907L711.346 137.976L710.98 137.046C707.923 138.248 704.797 139.44 701.6 140.62L701.947 141.558ZM720.532 134.242L720.92 135.164C724.103 133.827 727.207 132.477 730.233 131.116L729.823 130.204L729.412 129.292C726.402 130.646 723.314 131.99 720.145 133.32L720.532 134.242ZM738.88 125.98L739.315 126.88C742.381 125.399 745.36 123.904 748.254 122.398L747.792 121.511L747.33 120.624C744.454 122.121 741.493 123.606 738.445 125.08L738.88 125.98ZM756.668 116.704L757.159 117.575C760.148 115.89 763.038 114.192 765.831 112.481L765.308 111.629L764.786 110.776C762.014 112.474 759.146 114.159 756.177 115.832L756.668 116.704ZM773.714 106.251L774.27 107.082C777.119 105.176 779.856 103.257 782.484 101.325L781.891 100.519L781.299 99.7133C778.696 101.627 775.983 103.53 773.158 105.419L773.714 106.251ZM789.852 94.3645L790.483 95.14C793.162 92.9591 795.711 90.765 798.135 88.5597L797.462 87.82L796.789 87.0802C794.392 89.2603 791.871 91.4306 789.22 93.5891L789.852 94.3645ZM804.675 80.8575L805.391 81.5553C807.8 79.0821 810.063 76.598 812.187 74.1058L811.426 73.4571L810.665 72.8084C808.57 75.2663 806.337 77.7177 803.958 80.1597L804.675 80.8575ZM817.644 65.6105L818.45 66.2024C820.491 63.4236 822.371 60.6388 824.1 57.8519L823.25 57.3246L822.401 56.7974C820.699 59.5397 818.848 62.2814 816.838 65.0186L817.644 65.6105ZM828.177 48.6043L829.067 49.0594C830.638 45.9855 832.039 42.9145 833.285 39.8518L832.358 39.4752L831.432 39.0986C830.208 42.1084 828.831 45.127 827.286 48.1492L828.177 48.6043ZM835.724 30.0342L836.679 30.3285C837.687 27.0552 838.531 23.7986 839.229 20.5653L838.251 20.3544L837.274 20.1435C836.588 23.3223 835.758 26.5233 834.768 29.7399L835.724 30.0342ZM839.954 10.4672L840.946 10.5962C841.164 8.9185 841.346 7.24936 841.496 5.58973L840.5 5.5L839.504 5.41027C839.357 7.04435 839.177 8.6873 838.962 10.3382L839.954 10.4672Z" fill="#B0B0B0"/>
</g>
<defs>
<filter id="filter0_f_66_332" x="0.899902" y="0.499969" width="850.367" height="203.848" filterUnits="userSpaceOnUse" color-interpolation-filters="sRGB">
<feFlood flood-opacity="0" result="BackgroundImageFix"/>
<feBlend mode="normal" in="SourceGraphic" in2="BackgroundImageFix" result="shape"/>
<feGaussianBlur stdDeviation="2" result="effect1_foregroundBlur_66_332"/>
</filter>
</defs>
</svg>
