<svg width="59" height="65" viewBox="0 0 59 65" fill="none" xmlns="http://www.w3.org/2000/svg">
<path d="M31.1591 51.0909V48.0227C31.1591 45.5606 31.6894 43.2879 32.75 41.2045C33.8295 39.1212 35.392 37.4451 37.4375 36.1761C39.483 34.9072 41.9735 34.2727 44.9091 34.2727C47.9205 34.2727 50.4489 34.8977 52.4943 36.1477C54.5587 37.3977 56.1212 39.0644 57.1818 41.1477C58.2424 43.2311 58.7727 45.5227 58.7727 48.0227V51.0909C58.7727 53.553 58.233 55.8258 57.1534 57.9091C56.0928 59.9924 54.5303 61.6686 52.4659 62.9375C50.4015 64.2064 47.8826 64.8409 44.9091 64.8409C41.9356 64.8409 39.4261 64.2064 37.3807 62.9375C35.3352 61.6686 33.7822 59.9924 32.7216 57.9091C31.6799 55.8258 31.1591 53.553 31.1591 51.0909ZM41.0455 48.0227V51.0909C41.0455 52.1705 41.3106 53.2405 41.8409 54.3011C42.3902 55.3428 43.4129 55.8636 44.9091 55.8636C46.4811 55.8636 47.5133 55.3523 48.0057 54.3295C48.517 53.3068 48.7727 52.2273 48.7727 51.0909V48.0227C48.7727 46.8864 48.536 45.7879 48.0625 44.7273C47.589 43.6667 46.5379 43.1364 44.9091 43.1364C43.4129 43.1364 42.3902 43.6667 41.8409 44.7273C41.3106 45.7879 41.0455 46.8864 41.0455 48.0227ZM0.704546 17.7955V14.7273C0.704546 12.2273 1.24432 9.9356 2.32386 7.85227C3.42235 5.76894 4.99432 4.10227 7.03977 2.85227C9.08523 1.60227 11.5568 0.97727 14.4545 0.97727C17.4659 0.97727 19.9943 1.60227 22.0398 2.85227C24.1042 4.10227 25.6667 5.76894 26.7273 7.85227C27.7879 9.9356 28.3182 12.2273 28.3182 14.7273V17.7955C28.3182 20.2955 27.7784 22.5777 26.6989 24.642C25.6383 26.7064 24.0758 28.3542 22.0114 29.5852C19.947 30.8163 17.428 31.4318 14.4545 31.4318C11.4811 31.4318 8.97159 30.8068 6.92614 29.5568C4.88068 28.3068 3.32765 26.6496 2.26705 24.5852C1.22538 22.5208 0.704546 20.2576 0.704546 17.7955ZM10.7045 14.7273V17.7955C10.7045 18.9318 10.9697 20.0114 11.5 21.0341C12.0303 22.0568 13.0152 22.5682 14.4545 22.5682C16.0265 22.5682 17.0587 22.0568 17.5511 21.0341C18.0625 20.0114 18.3182 18.9318 18.3182 17.7955V14.7273C18.3182 13.5909 18.0814 12.4924 17.608 11.4318C17.1345 10.3712 16.0833 9.84091 14.4545 9.84091C12.9583 9.84091 11.9545 10.3901 11.4432 11.4886C10.9508 12.5682 10.7045 13.6477 10.7045 14.7273ZM5.53409 62L45.5341 3.81818H53.6023L13.6023 62H5.53409Z" fill="#000AFF"/>
</svg>
